<svg width="19" height="19" viewBox="0 0 19 19" fill="none" xmlns="http://www.w3.org/2000/svg">
<path fill-rule="evenodd" clip-rule="evenodd" d="M18.054 9.27779C18.054 14.2237 14.0447 18.233 9.09878 18.233C4.1529 18.233 0.143555 14.2237 0.143555 9.27779C0.143555 4.33191 4.1529 0.322571 9.09878 0.322571C14.0447 0.322571 18.054 4.33191 18.054 9.27779Z" fill="#07BB62"/>
<path fill-rule="evenodd" clip-rule="evenodd" d="M5.02658 9.01939C5.24525 9.01919 5.42246 8.84897 5.42266 8.63893C5.42266 8.63353 5.42186 8.62813 5.42105 8.62273C5.42051 8.61913 5.41997 8.61553 5.41967 8.61193L8.86973 6.91478C9.01503 7.03454 9.22956 7.03454 9.37486 6.91478L12.8249 8.61229C12.8249 8.61675 12.8242 8.62111 12.8234 8.62552C12.8227 8.63002 12.8219 8.63456 12.8219 8.63929C12.8185 8.8034 12.9228 8.95187 13.0825 9.01019C13.2423 9.0685 13.4229 9.02406 13.5338 8.89917C13.6447 8.77428 13.6619 8.59591 13.5767 8.4536C13.4916 8.31129 13.3225 8.23577 13.1543 8.26494L9.44718 2.63142C9.56202 2.47323 9.53548 2.25753 9.38542 2.12941C9.23535 2.0013 9.00923 2.0013 8.85917 2.12941C8.7091 2.25753 8.68257 2.47323 8.79741 2.63142L5.09029 8.26458C4.944 8.24327 4.79755 8.30214 4.71066 8.41719C4.62378 8.53223 4.61097 8.68423 4.67746 8.8112C4.74395 8.93817 4.87863 9.0189 5.02658 9.02047V9.01939ZM9.27668 2.92622L12.7867 8.26135L9.51537 6.65203C9.51537 6.64757 9.51611 6.6432 9.51685 6.63879L9.51685 6.63878V6.63878C9.51761 6.63428 9.51837 6.62975 9.51837 6.62503C9.51826 6.47219 9.42313 6.33419 9.27668 6.27444V2.92622ZM8.96828 6.27372V2.92622L5.45827 8.26135L8.72921 6.65167C8.72891 6.64787 8.72836 6.6442 8.72781 6.64054C8.72701 6.63518 8.72621 6.62987 8.72621 6.62431C8.72649 6.47141 8.82175 6.33344 8.96828 6.27372ZM9.12229 11.5052L12.427 9.14573L9.12229 7.73906L5.81762 9.14573L9.12229 11.5052ZM12.9033 9.50631C12.9785 9.41268 13.0953 9.35856 13.2184 9.36026H13.2161C13.4302 9.36659 13.6004 9.53514 13.6004 9.74091C13.6004 9.94667 13.4302 10.1152 13.2161 10.1215C13.1954 10.121 13.1747 10.1189 13.1543 10.1154L9.44456 15.8332C9.56086 15.9912 9.53521 16.2078 9.38494 16.3367C9.23468 16.4655 9.00766 16.4655 8.8574 16.3367C8.70713 16.2078 8.68148 15.9912 8.79779 15.8332L5.08804 10.1154C5.06774 10.1189 5.0472 10.121 5.02659 10.1215C4.86635 10.1215 4.7219 10.0288 4.66062 9.8866C4.59933 9.74439 4.63329 9.58071 4.74665 9.47193C4.86 9.36315 5.03043 9.33068 5.17842 9.38969C5.32641 9.44869 5.42282 9.58753 5.42267 9.74145C5.42216 9.77357 5.41738 9.80551 5.40843 9.83647L8.88622 12.4007C9.0256 12.2985 9.21898 12.2985 9.35837 12.4007L12.8362 9.83611C12.8032 9.72216 12.8281 9.59995 12.9033 9.50631ZM5.60703 10.3555L8.96829 15.5344V13.0551C8.80099 12.9944 8.70167 12.8286 8.73109 12.6592L5.60703 10.3555ZM9.27668 15.5344V13.0544C9.42313 12.9946 9.51827 12.8566 9.51838 12.7038C9.51772 12.6887 9.51609 12.6737 9.5135 12.6588L12.6376 10.3552L9.27668 15.5344Z" fill="white"/>
</svg>
